# xmcd CD database file
#
# Track frame offsets:
#	150
#	14793
#	27945
#	39213
#
# Disc length: 684 seconds
#
# Revision: 0
# Processed by: cddbd v1.5.1PL0 Copyright (c) Steve Scherf et al.
# Submitted via: CDex 1.40Release
#
DISCID=2802aa04
DTITLE=Suzanne Klee - If I Read You Right - Maxi-CD
DYEAR=1900
DGENRE=Country
TTITLE0=If I Read You Right
TTITLE1=Welcome Back Inn
TTITLE2=I Am
TTITLE3=All The Gold In California
EXTD=ID3G: 2
EXTT0=
EXTT1=
EXTT2=
EXTT3=
PLAYORDER=
